<svg width="96" height="96" xmlns="http://www.w3.org/2000/svg" xmlns:xlink="http://www.w3.org/1999/xlink" xml:space="preserve" overflow="hidden"><g><path d="M76.7006 41.6953C81.8275 59.7461 71.3505 78.5353 53.2997 83.6622 35.2489 88.789 16.4597 78.3121 11.3329 60.2613 6.206 42.2105 16.6829 23.4213 34.7337 18.2944 41.4587 16.3844 48.6093 16.5953 55.21 18.8984L57.7681 12.3711C53.4623 10.838 48.9299 10.0375 44.3594 10.0029 44.2378 10.002 44.1194 10.001 43.9986 10.001 21.3556 10.0011 2.99985 28.3569 2.99991 50.9999 2.99996 73.506 21.1427 91.8046 43.648 91.9971 43.7705 91.998 43.8911 91.999 44.0132 91.999 66.6631 91.9866 85.0144 73.6152 85.002 50.9653 84.9999 46.9916 84.4202 43.0393 83.2812 39.2324ZM71.3393 78.8145C64.0643 86.0043 54.2409 90.0249 44.0126 89.999 43.8969 89.999 43.7812 89.998 43.6654 89.9971 22.1278 89.8083 4.82119 72.1955 5.01003 50.6579 5.19767 29.2571 22.5969 12.0058 43.9985 12.001 44.1127 12.001 44.2275 12.002 44.3417 12.0029 47.9965 12.0332 51.6287 12.5778 55.1317 13.6206L54.0426 16.4324C34.9515 10.8993 14.9897 21.8902 9.45656 40.9812 3.92344 60.0723 14.9143 80.0342 34.0054 85.5673 37.1542 86.4799 40.413 86.958 43.6913 86.9883 43.7987 86.9893 43.9052 86.9893 44.0121 86.9893 63.8526 87.0227 79.9635 70.9658 79.9969 51.1254 80.0015 48.3761 79.6905 45.6354 79.07 42.957L81.91 41.9184C82.6686 45 83.0349 48.165 83 51.3384 82.9387 61.6869 78.7398 71.5807 71.3393 78.8145Z"/><path d="M47.7548 22.42C45.7268 20.3924 42.4391 20.3928 40.4115 22.4208 38.3839 24.4488 38.3843 27.7366 40.4123 29.7641 41.3732 30.7248 42.6725 31.2706 44.0312 31.2843 44.0605 31.2843 44.0898 31.2853 44.1191 31.2853 45.4727 31.2904 46.7733 30.7595 47.7367 29.8087 49.7784 27.7719 49.7865 24.4668 47.7548 22.42ZM46.3348 28.3829C45.7427 28.9957 44.9155 29.3241 44.0643 29.2843 43.2009 29.2709 42.3779 28.9159 41.7757 28.297 40.5166 27.0388 40.5136 24.9989 41.7689 23.737 42.3607 23.1561 43.1578 22.8322 43.9871 22.8356 44.8684 22.8362 45.7123 23.1918 46.3284 23.822 47.5874 25.0806 47.5901 27.1208 46.3344 28.3828Z"/><path d="M50.9145 77.793C51.8845 78.787 53.2084 79.3568 54.5971 79.3779 54.6264 79.3779 54.6557 79.3789 54.685 79.3789 56.0386 79.3839 57.3392 78.8531 58.3027 77.9023 60.3481 75.831 60.3271 72.4938 58.2558 70.4484 57.2906 69.4952 55.995 68.9509 54.6386 68.9287 53.2545 68.899 51.9174 69.4314 50.9325 70.4043 48.8908 72.4411 48.8827 75.7462 50.9145 77.793ZM52.3345 71.8301C52.9252 71.2482 53.7222 70.9238 54.5513 70.9277 54.5689 70.9277 54.5874 70.9277 54.605 70.9287 55.4685 70.942 56.2914 71.297 56.8936 71.916 58.1524 73.1746 58.1553 75.2145 56.9 76.4766 56.3028 77.0814 55.4794 77.4083 54.63 77.3779 53.7665 77.3646 52.9436 77.0096 52.3414 76.3906 51.0824 75.1321 51.0795 73.0921 52.3349 71.83Z"/><path d="M29.9594 32.5684C28.3123 30.9195 25.6404 30.918 23.9914 32.5651 22.3425 34.2122 22.341 36.8841 23.9881 38.5331 24.7689 39.3148 25.8252 39.759 26.93 39.7705 26.9534 39.7715 26.9774 39.7715 27.0008 39.7715 28.1013 39.7756 29.1586 39.3442 29.9422 38.5715 31.6015 36.9172 31.6092 34.2322 29.9594 32.5684ZM28.54 37.1455C27.6463 38.0044 26.2255 37.9761 25.3666 37.0824 25.3664 37.0823 25.3663 37.0821 25.3662 37.082 24.489 36.2073 24.4853 34.7875 25.3579 33.9082 25.7691 33.5048 26.3229 33.2799 26.8989 33.2822 27.5138 33.2827 28.1025 33.5309 28.5322 33.9707 29.4092 34.846 29.4127 36.2659 28.54 37.1455Z"/><path d="M72.7763 57.9434C74.4385 56.2628 74.4235 53.5529 72.7429 51.8907 71.9587 51.1151 70.9054 50.6722 69.8027 50.6543 69.7792 50.6533 69.7553 50.6533 69.7319 50.6533 68.6314 50.6492 67.574 51.0806 66.7904 51.8533 65.128 53.5322 65.1413 56.2408 66.8201 57.9032 67.622 58.6972 68.705 59.1422 69.8334 59.1414 70.9337 59.1446 71.9911 58.7142 72.7763 57.9434ZM68.2 56.4541C67.3231 55.5788 67.3196 54.1589 68.1922 53.2793 68.6029 52.8757 69.1564 52.6507 69.7322 52.6533L69.77 52.6533C70.3723 52.6631 70.9462 52.911 71.3662 53.3428 72.2436 54.1992 72.2607 55.6047 71.4043 56.4821 70.5479 57.3595 69.1424 57.3766 68.265 56.5202 68.2429 56.4986 68.2212 56.4766 68.2 56.4541Z"/><path d="M38.7768 53.6455C37.9894 52.8382 36.9143 52.3758 35.7868 52.3594 34.6603 52.3266 33.5703 52.7606 32.7746 53.5586 31.1122 55.2375 31.1255 57.9461 32.8043 59.6085 33.6061 60.4025 34.6892 60.8475 35.8176 60.8467 36.9178 60.8497 37.9749 60.4192 38.76 59.6484 40.4191 57.994 40.4266 55.3091 38.7768 53.6455ZM37.3583 58.2217C36.4497 59.0855 35.0129 59.0492 34.1491 58.1406 33.3055 57.2533 33.3176 55.857 34.1762 54.9844 34.587 54.5807 35.1407 54.3557 35.7167 54.3584L35.7538 54.3584C36.3561 54.3682 36.93 54.6161 37.35 55.0479 38.2273 55.9226 38.2311 57.3424 37.3583 58.2217Z"/><path d="M53.8675 64.0042C56.154 63.966 57.987 62.1003 57.9848 59.8135 58.0012 57.4829 56.1253 55.5803 53.7947 55.5638 51.4641 55.5474 49.5615 57.4234 49.545 59.754 49.5286 62.0791 51.3961 63.9794 53.7211 64.0035 53.7445 64.0049 53.8422 64.0047 53.8675 64.0042ZM52.1493 58.1416C52.5605 57.7382 53.1143 57.5133 53.6903 57.5156 54.9561 57.5203 55.9809 58.5457 55.9848 59.8115 55.9873 60.4005 55.7515 60.9655 55.331 61.3779 54.9033 61.7789 54.3396 62.0029 53.7533 62.0049 53.1511 61.9948 52.5774 61.7468 52.1576 61.3149 51.2807 60.4402 51.277 59.0209 52.1493 58.1416Z"/><path d="M30.6108 76.5439C31.4163 77.3659 32.5189 77.8288 33.6698 77.8281 35.9797 77.8347 37.8576 75.9676 37.8642 73.6577 37.8642 73.6518 37.8642 73.6459 37.8642 73.64 37.8808 71.2824 35.983 69.3576 33.6254 69.341 32.5074 69.3332 31.431 69.7642 30.6274 70.5414 29.8235 71.3282 29.3719 72.4066 29.3754 73.5314 29.3728 74.6592 29.8167 75.7422 30.61 76.5439ZM32.0292 71.9668C32.4584 71.5682 33.0212 71.3449 33.6069 71.3408 34.858 71.367 35.8598 72.3864 35.8642 73.6377 35.8667 74.2267 35.6309 74.7916 35.2104 75.2041 34.3162 76.0615 32.8968 76.0336 32.037 75.1416 31.6127 74.7139 31.3748 74.1357 31.3754 73.5332 31.3732 72.9443 31.6089 72.3794 32.0292 71.9668Z"/><path d="M41.9311 47.9189C43.0317 47.9233 44.0891 47.4914 44.872 46.7178 46.5724 45.0844 46.6267 42.3819 44.9933 40.6815 43.36 38.9811 40.6574 38.9267 38.957 40.5601 37.2566 42.1935 37.2023 44.8961 38.8357 46.5965 38.847 46.6083 38.8585 46.6201 38.87 46.6318L38.8705 46.6318C39.6583 47.4385 40.7331 47.9008 41.8605 47.918 41.8837 47.918 41.9076 47.9189 41.9311 47.9189ZM40.289 42.0547C40.7106 41.6444 41.2784 41.4192 41.8666 41.4287 42.4688 41.4381 43.0427 41.6857 43.4628 42.1172 44.3401 42.9925 44.3433 44.4127 43.47 45.292 43.0544 45.7111 42.4828 45.938 41.8929 45.918 41.2906 45.9085 40.7165 45.661 40.2962 45.2295 39.4192 44.3541 39.416 42.9341 40.289 42.0547Z"/><path d="M93.0617 29.5393C88.1698 17.746 78.8172 8.36259 67.04 3.4319 65.2093 2.61476 63.0628 3.43643 62.2457 5.26713 62.2101 5.34688 62.1774 5.42789 62.1476 5.51 61.4737 7.34749 62.3167 9.39519 64.0888 10.2258L48.788 47.7822 86.2915 32.5029C86.48 32.9124 86.744 33.2828 87.0696 33.5947 87.7754 34.2966 88.7294 34.6918 89.7248 34.6947 90.1737 34.6949 90.6189 34.6142 91.0392 34.4564L91.0826 34.44 91.1252 34.4217C92.9871 33.5879 93.8459 31.4226 93.0617 29.5393ZM57.5217 31.6472C58.5575 31.0873 59.851 31.4731 60.4109 32.5088 60.5795 32.8207 60.6677 33.1698 60.6674 33.5244 60.6657 34.7031 59.7088 35.6573 58.5301 35.6557 57.5995 35.6544 56.777 35.0502 56.4974 34.1626ZM52.4325 44.1377 55.58 36.4128C55.5907 36.4238 55.6 36.4365 55.6106 36.4473 57.224 38.0626 59.8415 38.0642 61.4568 36.4507 63.0721 34.8373 63.0737 32.2198 61.4602 30.6045 60.6614 29.8048 59.57 29.367 58.44 29.3931L65.9135 11.0491C74.5069 15.1334 81.4194 22.0695 85.4745 30.6768ZM90.3371 32.5835C89.6937 32.8243 88.969 32.6667 88.4837 32.1804 88.3056 32.0279 88.1673 31.8344 88.0808 31.6165 83.724 21.1635 75.432 12.8425 64.9942 8.4492 64.1247 8.07248 63.7004 7.08257 64.0272 6.1931 64.2606 5.5477 64.8729 5.11738 65.5592 5.1165 65.7953 5.11694 66.0286 5.16809 66.2432 5.2665 77.5523 9.99393 86.5323 19.0029 91.2232 30.3272 91.5814 31.1952 91.1903 32.1912 90.3371 32.5835Z"/><path d="M71.333 15.9824C69.7188 14.3679 67.1013 14.3676 65.4868 15.9819 63.8723 17.5961 63.872 20.2136 65.4863 21.8281 67.1005 23.4426 69.718 23.4429 71.3325 21.8286 71.3327 21.8284 71.3328 21.8283 71.333 21.8281L71.3335 21.8281C72.9476 20.2137 72.9473 17.5965 71.333 15.9824ZM69.9189 20.4141 69.9189 20.4141C69.0749 21.2207 67.7458 21.2207 66.9018 20.4141 66.0685 19.5808 66.0684 18.2298 66.9016 17.3965 67.7349 16.5631 69.086 16.563 69.9193 17.3963 70.7526 18.2296 70.7527 19.5806 69.9194 20.414 69.9194 20.414 69.9193 20.4141 69.9193 20.4141Z"/><path d="M69.6054 27.082C67.9912 28.6964 67.9913 31.3137 69.6057 32.9279 71.22 34.5422 73.8374 34.5421 75.4516 32.9277 77.0657 31.3134 77.0657 28.6963 75.4516 27.082 73.8363 25.4699 71.2207 25.4699 69.6054 27.082ZM74.0375 31.5137C73.2042 32.3462 71.8538 32.3456 71.0213 31.5123 70.1887 30.679 70.1893 29.3286 71.0226 28.4961 71.8554 27.6641 73.2047 27.6641 74.0375 28.4961 74.8692 29.3301 74.8692 30.6797 74.0375 31.5137Z"/><path d="M21.8 50.625C23.5673 50.625 25 52.0577 25 53.825 25 55.5923 23.5673 57.025 21.8 57.025 20.0327 57.025 18.6 55.5923 18.6 53.825 18.602 52.0585 20.0335 50.627 21.8 50.625M21.8 48.625C18.9281 48.625 16.6 50.9531 16.6 53.825 16.6 56.6969 18.9281 59.025 21.8 59.025 24.6719 59.025 27 56.6969 27 53.825 27 50.9531 24.6719 48.625 21.8 48.625Z"/></g></svg>