<svg width="96" height="96" xmlns="http://www.w3.org/2000/svg" xmlns:xlink="http://www.w3.org/1999/xlink" xml:space="preserve" overflow="hidden"><g><path d="M77.47 38.89C84.2525 57.5796 74.5998 78.2288 55.9102 85.0113 37.2206 91.7938 16.5713 82.1411 9.78888 63.4515 3.00642 44.7618 12.6591 24.1126 31.3487 17.3302 39.9762 14.1992 49.4738 14.4818 57.9 18.12L59.45 14.42C39.1589 5.68508 15.6286 15.0533 6.89366 35.3444-1.84126 55.6356 7.52691 79.1658 27.8181 87.9007 48.1092 96.6357 71.6395 87.2675 80.3744 66.9763 84.4145 57.5913 84.7099 47.016 81.2 37.42Z" fill="#F2F2F2"/><path d="M77.31 19.45 77.31 19.45 77.31 19.45C73.8032 15.8627 69.6189 13.0075 65 11.05L65 11.05 50.52 45.77 85.52 31.9 85.52 31.9C83.6401 27.2445 80.8488 23.0116 77.31 19.45ZM65.6 21.31C64.3722 20.0235 64.4198 17.9853 65.7063 16.7575 66.9929 15.5297 69.0311 15.5773 70.2589 16.8638 71.4726 18.1356 71.4419 20.1458 70.19 21.38 68.9079 22.6282 66.8566 22.6008 65.6084 21.3186 65.6056 21.3158 65.6028 21.3129 65.6 21.31ZM56 38.19 58.67 31.81C60.5322 32.3074 61.6386 34.2202 61.1412 36.0824 60.6438 37.9446 58.731 39.051 56.8688 38.5536 56.5641 38.4722 56.2719 38.3499 56 38.19ZM69.9 32.58C68.6722 31.2935 68.7198 29.2553 70.0063 28.0275 71.2929 26.7997 73.3311 26.8473 74.5589 28.1338 75.7726 29.4056 75.7419 31.4158 74.49 32.65 73.2023 33.8959 71.1491 33.8646 69.9 32.58Z" fill="#F2F2F2"/><path d="M92.33 29.88C92.5495 29.3588 92.5495 28.7712 92.33 28.25 90.1705 22.8685 86.9577 17.9727 82.88 13.85 78.8349 9.72799 74.0208 6.43927 68.71 4.17 68.1855 3.94999 67.5945 3.94999 67.07 4.17 66.5527 4.37328 66.1433 4.78268 65.94 5.3 65.5032 6.38521 66.0142 7.62051 67.09 8.08 76.7791 12.2255 84.4408 20.0273 88.41 29.79 88.5141 30.0552 88.6705 30.2966 88.87 30.5L88.87 30.5C89.4683 31.1036 90.3671 31.2959 91.16 30.99 91.681 30.7886 92.1015 30.3897 92.33 29.88Z" fill="#F2F2F2"/><path d="M73.83 40.61 43.63 52.61 56.46 21.85 56.31 21.79C52.398 20.0821 48.1785 19.1906 43.91 19.17L43.63 19.17C26.088 19.2234 11.8376 33.3491 11.63 50.89 11.4802 68.5595 25.6805 83.006 43.35 83.16L43.64 83.16C61.3131 83.1485 75.6306 68.8122 75.6191 51.1391 75.6168 47.554 75.012 43.9947 73.83 40.61ZM40.7 23C42.3569 21.3296 45.0541 21.3186 46.7245 22.9755 48.3949 24.6324 48.4059 27.3296 46.749 29 45.0922 30.6704 42.3949 30.6814 40.7245 29.0245 40.7163 29.0164 40.7081 29.0082 40.7 29 39.0431 27.3609 39.0288 24.689 40.6679 23.0321 40.6785 23.0213 40.6892 23.0106 40.7 23ZM24.41 56.9C22.9749 58.5357 20.4856 58.6983 18.8499 57.2632 18.6913 57.1242 18.5443 56.9726 18.41 56.81 16.8197 55.1289 16.8934 52.477 18.5745 50.8867 20.2555 49.2965 22.9075 49.3701 24.4977 51.0512 26.0594 52.702 26.0204 55.2968 24.41 56.9ZM28.87 37.9C27.6025 39.1865 25.5321 39.2018 24.2456 37.9344 22.9592 36.6669 22.9438 34.5965 24.2113 33.31 25.4788 32.0235 27.5492 32.0082 28.8356 33.2757 28.8472 33.287 28.8586 33.2985 28.87 33.31 30.1087 34.5737 30.1087 36.5963 28.87 37.86ZM35.54 75.96C34.2725 77.2465 32.2021 77.2618 30.9156 75.9943 29.6292 74.7269 29.6138 72.6565 30.8813 71.37 32.1488 70.0835 34.2192 70.0682 35.5056 71.3356 35.5172 71.347 35.5286 71.3585 35.54 71.37 36.7787 72.6337 36.7787 74.6563 35.54 75.92ZM37.69 58.96C36.4225 60.2465 34.3521 60.2618 33.0656 58.9944 31.7792 57.7269 31.7638 55.6565 33.0313 54.37 34.2988 53.0835 36.3692 53.0682 37.6556 54.3356 37.6672 54.347 37.6786 54.3585 37.69 54.37 38.9418 55.6362 38.9418 57.6738 37.69 58.94ZM40.21 45.96C38.9616 44.6935 38.9762 42.6548 40.2427 41.4063 41.5092 40.1579 43.548 40.1726 44.7964 41.4391 45.1589 41.8069 45.4277 42.2565 45.58 42.75L44 46.57C42.7324 47.2066 41.1983 46.9476 40.21 45.93ZM51.08 57.46C52.3475 56.1735 54.4179 56.1582 55.7044 57.4256 56.9908 58.6931 57.0062 60.7635 55.7387 62.05 54.4712 63.3365 52.4008 63.3518 51.1144 62.0844 51.1028 62.073 51.0914 62.0615 51.08 62.05 49.8042 60.7953 49.7872 58.7439 51.0419 57.4681 51.0545 57.4553 51.0672 57.4426 51.08 57.43ZM57.23 77.22C55.5731 78.8904 52.8759 78.9014 51.2055 77.2445 49.5351 75.5876 49.5241 72.8904 51.181 71.22 52.8378 69.5496 55.5351 69.5387 57.2055 71.1955 57.2137 71.2036 57.2219 71.2118 57.23 71.22 58.8786 72.8675 58.8795 75.5394 57.232 77.188 57.2313 77.1887 57.2307 77.1893 57.23 77.19ZM71.7 57.22C70.4325 58.5065 68.3621 58.5218 67.0756 57.2544 65.7892 55.9869 65.7738 53.9165 67.0413 52.63 68.3088 51.3435 70.3792 51.3282 71.6656 52.5956 71.6772 52.607 71.6886 52.6185 71.7 52.63 72.9703 53.8903 72.9783 55.9418 71.718 57.212 71.712 57.218 71.706 57.224 71.7 57.23Z" fill="#F2F2F2"/></g></svg>